<?xml version="1.0" encoding="utf-8" standalone="no"?>
<!DOCTYPE svg PUBLIC "-//W3C//DTD SVG 1.1//EN"
  "http://www.w3.org/Graphics/SVG/1.1/DTD/svg11.dtd">
<svg xmlns:xlink="http://www.w3.org/1999/xlink" width="432pt" height="252pt" viewBox="0 0 432 252" xmlns="http://www.w3.org/2000/svg" version="1.1">
 <metadata>
  <rdf:RDF xmlns:dc="http://purl.org/dc/elements/1.1/" xmlns:cc="http://creativecommons.org/ns#" xmlns:rdf="http://www.w3.org/1999/02/22-rdf-syntax-ns#">
   <cc:Work>
    <dc:type rdf:resource="http://purl.org/dc/dcmitype/StillImage"/>
    <dc:date>2023-09-25T00:46:19.584176</dc:date>
    <dc:format>image/svg+xml</dc:format>
    <dc:creator>
     <cc:Agent>
      <dc:title>Matplotlib v3.7.2, https://matplotlib.org/</dc:title>
     </cc:Agent>
    </dc:creator>
   </cc:Work>
  </rdf:RDF>
 </metadata>
 <defs>
  <style type="text/css">*{stroke-linejoin: round; stroke-linecap: butt}</style>
 </defs>
 <g id="figure_1">
  <g id="patch_1">
   <path d="M 0 252 
L 432 252 
L 432 0 
L 0 0 
z
" style="fill: #ffffff"/>
  </g>
  <g id="axes_1">
   <g id="patch_2">
    <path d="M 59.555 201.04 
L 405.6075 201.04 
L 405.6075 14.609508 
L 59.555 14.609508 
z
" style="fill: #ffffff"/>
   </g>
   <g id="PolyCollection_1">
    <defs>
     <path id="m6d4e77a3c8" d="M 61.233701 -70.800136 
L 61.233701 -52.488119 
L 64.69388 -52.488119 
L 68.154059 -53.018703 
L 71.615276 -59.327784 
L 75.075455 -56.386624 
L 78.535634 -56.994187 
L 81.996851 -58.973132 
L 85.45703 -58.205382 
L 88.917209 -58.208505 
L 92.378426 -61.162315 
L 95.838605 -69.492904 
L 99.298784 -75.608063 
L 102.760001 -74.452066 
L 106.22018 -71.732648 
L 109.680359 -65.490438 
L 113.141576 -66.562845 
L 116.601755 -67.23455 
L 120.061934 -69.892227 
L 123.523151 -63.687951 
L 126.98333 -65.613472 
L 130.443509 -62.441482 
L 133.904726 -69.08725 
L 137.364905 -77.763104 
L 140.825084 -71.067556 
L 144.286301 -72.669618 
L 147.74648 -65.580438 
L 151.206659 -67.247512 
L 154.667876 -70.718163 
L 158.128055 -73.835138 
L 161.588234 -66.321912 
L 165.049451 -65.630222 
L 168.50963 -83.062961 
L 171.969809 -81.44152 
L 175.431026 -81.156218 
L 178.891205 -69.738065 
L 182.351384 -74.173427 
L 185.812601 -75.194637 
L 189.27278 -73.961466 
L 192.732959 -78.607682 
L 196.194176 -81.122454 
L 199.654355 -78.330606 
L 203.114534 -83.244257 
L 206.575751 -73.980719 
L 210.03593 -65.113698 
L 213.496109 -74.128661 
L 216.957326 -77.616302 
L 220.417505 -77.935288 
L 223.877684 -74.151571 
L 227.338901 -68.539332 
L 230.79908 -83.695172 
L 234.259259 -88.501698 
L 237.720476 -88.565564 
L 241.180655 -76.788554 
L 244.640834 -68.561777 
L 248.102051 -82.098511 
L 251.56223 -81.185479 
L 255.022409 -82.478784 
L 258.483626 -94.949583 
L 261.943805 -106.982956 
L 265.403984 -100.026765 
L 268.865201 -94.573109 
L 272.32538 -95.54778 
L 275.785559 -78.022862 
L 279.246776 -75.123723 
L 282.706955 -103.409123 
L 286.167134 -101.151992 
L 289.628351 -109.387953 
L 293.08853 -96.169379 
L 296.548709 -113.814041 
L 300.009926 -103.029707 
L 303.470105 -101.878768 
L 306.930284 -107.558572 
L 310.391501 -105.916708 
L 313.85168 -107.605814 
L 317.311859 -105.434804 
L 320.773076 -101.3334 
L 324.233255 -113.661874 
L 327.693434 -100.441755 
L 331.154651 -109.955593 
L 334.61483 -105.355411 
L 338.075009 -101.587087 
L 341.536226 -100.335367 
L 344.996405 -114.941866 
L 348.456584 -110.970032 
L 351.917801 -105.129253 
L 355.37798 -114.037668 
L 358.838159 -122.164104 
L 362.299376 -118.370862 
L 365.759555 -111.832011 
L 369.219734 -118.032864 
L 372.680951 -111.279107 
L 376.14113 -115.473653 
L 379.601309 -103.181083 
L 383.062526 -104.165266 
L 386.522705 -112.374789 
L 389.982884 -119.262886 
L 393.444101 -123.29176 
L 396.90428 -121.360792 
L 400.364459 -109.332317 
L 403.825676 -129.883278 
L 403.825676 -168.782691 
L 403.825676 -168.782691 
L 400.364459 -183.327201 
L 396.90428 -179.226428 
L 393.444101 -180.911806 
L 389.982884 -165.638419 
L 386.522705 -159.040685 
L 383.062526 -157.807951 
L 379.601309 -177.4221 
L 376.14113 -158.797604 
L 372.680951 -167.347012 
L 369.219734 -177.658109 
L 365.759555 -178.026307 
L 362.299376 -162.172253 
L 358.838159 -173.258843 
L 355.37798 -154.273054 
L 351.917801 -167.842811 
L 348.456584 -171.298553 
L 344.996405 -170.401635 
L 341.536226 -152.42714 
L 338.075009 -153.713754 
L 334.61483 -158.335294 
L 331.154651 -164.148424 
L 327.693434 -156.727934 
L 324.233255 -155.732581 
L 320.773076 -147.682458 
L 317.311859 -148.020946 
L 313.85168 -142.332385 
L 310.391501 -148.839245 
L 306.930284 -164.134345 
L 303.470105 -161.967732 
L 300.009926 -150.400286 
L 296.548709 -156.347721 
L 293.08853 -161.708207 
L 289.628351 -141.737151 
L 286.167134 -135.73584 
L 282.706955 -145.585575 
L 279.246776 -155.869144 
L 275.785559 -161.464645 
L 272.32538 -145.667518 
L 268.865201 -147.936594 
L 265.403984 -144.150305 
L 261.943805 -140.711473 
L 258.483626 -150.472527 
L 255.022409 -149.394665 
L 251.56223 -120.174475 
L 248.102051 -123.954337 
L 244.640834 -128.557097 
L 241.180655 -129.546495 
L 237.720476 -122.485941 
L 234.259259 -137.779845 
L 230.79908 -139.51297 
L 227.338901 -120.248435 
L 223.877684 -134.545328 
L 220.417505 -142.267601 
L 216.957326 -135.188138 
L 213.496109 -135.521671 
L 210.03593 -134.551754 
L 206.575751 -131.754555 
L 203.114534 -136.192525 
L 199.654355 -136.689612 
L 196.194176 -116.693982 
L 192.732959 -117.184226 
L 189.27278 -118.562839 
L 185.812601 -132.159791 
L 182.351384 -133.280072 
L 178.891205 -120.151727 
L 175.431026 -121.772598 
L 171.969809 -113.288957 
L 168.50963 -111.166885 
L 165.049451 -129.84347 
L 161.588234 -114.702778 
L 158.128055 -112.922652 
L 154.667876 -124.174907 
L 151.206659 -114.911503 
L 147.74648 -110.349374 
L 144.286301 -108.99712 
L 140.825084 -103.49068 
L 137.364905 -115.638597 
L 133.904726 -110.722159 
L 130.443509 -107.925438 
L 126.98333 -110.895656 
L 123.523151 -101.879216 
L 120.061934 -107.67513 
L 116.601755 -92.476327 
L 113.141576 -95.684327 
L 109.680359 -94.852694 
L 106.22018 -95.767661 
L 102.760001 -104.460107 
L 99.298784 -111.454659 
L 95.838605 -117.825006 
L 92.378426 -92.561614 
L 88.917209 -100.491628 
L 85.45703 -92.804402 
L 81.996851 -82.177601 
L 78.535634 -77.097298 
L 75.075455 -85.278434 
L 71.615276 -82.823809 
L 68.154059 -78.56785 
L 64.69388 -66.961868 
L 61.233701 -70.800136 
z
" style="stroke: #17becf; stroke-opacity: 0.1"/>
    </defs>
    <g clip-path="url(#p6d391b8c6f)">
     <use xlink:href="#m6d4e77a3c8" x="0" y="252" style="fill: #17becf; fill-opacity: 0.1; stroke: #17becf; stroke-opacity: 0.1"/>
    </g>
   </g>
   <g id="PolyCollection_2">
    <defs>
     <path id="m6b8e4ef125" d="M 61.233701 -77.033901 
L 61.233701 -52.488119 
L 64.69388 -56.964899 
L 68.154059 -57.461048 
L 71.615276 -59.775849 
L 75.075455 -56.247968 
L 78.535634 -57.308539 
L 81.996851 -56.649692 
L 85.45703 -67.794892 
L 88.917209 -67.880445 
L 92.378426 -68.129827 
L 95.838605 -58.479684 
L 99.298784 -57.368286 
L 102.760001 -68.115415 
L 106.22018 -60.932486 
L 109.680359 -55.027535 
L 113.141576 -64.276152 
L 116.601755 -58.06279 
L 120.061934 -57.028723 
L 123.523151 -58.518323 
L 126.98333 -58.07809 
L 130.443509 -60.841588 
L 133.904726 -65.692968 
L 137.364905 -71.558851 
L 140.825084 -68.791941 
L 144.286301 -68.431405 
L 147.74648 -58.735412 
L 151.206659 -57.468371 
L 154.667876 -55.320887 
L 158.128055 -55.685594 
L 161.588234 -53.605848 
L 165.049451 -58.338602 
L 168.50963 -57.933218 
L 171.969809 -56.735639 
L 175.431026 -59.525054 
L 178.891205 -58.248424 
L 182.351384 -55.297276 
L 185.812601 -57.179238 
L 189.27278 -57.546186 
L 192.732959 -58.885587 
L 196.194176 -66.896431 
L 199.654355 -60.29432 
L 203.114534 -58.226394 
L 206.575751 -58.474378 
L 210.03593 -59.928283 
L 213.496109 -68.215051 
L 216.957326 -72.779123 
L 220.417505 -63.179956 
L 223.877684 -54.771514 
L 227.338901 -53.660282 
L 230.79908 -54.740214 
L 234.259259 -58.343817 
L 237.720476 -64.715939 
L 241.180655 -64.469937 
L 244.640834 -56.170813 
L 248.102051 -60.021169 
L 251.56223 -61.882922 
L 255.022409 -62.561481 
L 258.483626 -63.905775 
L 261.943805 -61.04875 
L 265.403984 -57.928344 
L 268.865201 -59.866041 
L 272.32538 -58.358482 
L 275.785559 -59.746217 
L 279.246776 -58.22234 
L 282.706955 -56.292318 
L 286.167134 -64.206148 
L 289.628351 -60.259901 
L 293.08853 -57.38628 
L 296.548709 -65.302876 
L 300.009926 -57.467499 
L 303.470105 -55.62637 
L 306.930284 -60.008726 
L 310.391501 -58.629817 
L 313.85168 -55.806848 
L 317.311859 -59.288298 
L 320.773076 -58.087043 
L 324.233255 -54.753771 
L 327.693434 -53.343071 
L 331.154651 -57.391764 
L 334.61483 -54.759935 
L 338.075009 -58.636056 
L 341.536226 -60.371994 
L 344.996405 -58.49935 
L 348.456584 -54.945097 
L 351.917801 -52.917659 
L 355.37798 -52.607269 
L 358.838159 -53.711505 
L 362.299376 -55.962925 
L 365.759555 -53.866779 
L 369.219734 -54.846708 
L 372.680951 -53.524441 
L 376.14113 -53.290005 
L 379.601309 -54.144191 
L 383.062526 -53.217 
L 386.522705 -62.179849 
L 389.982884 -56.293232 
L 393.444101 -56.52304 
L 396.90428 -58.839392 
L 400.364459 -62.235527 
L 403.825676 -56.563708 
L 403.825676 -105.302156 
L 403.825676 -105.302156 
L 400.364459 -117.745668 
L 396.90428 -99.07907 
L 393.444101 -98.183745 
L 389.982884 -118.314497 
L 386.522705 -124.82906 
L 383.062526 -103.87107 
L 379.601309 -83.642272 
L 376.14113 -102.907625 
L 372.680951 -86.041362 
L 369.219734 -88.588279 
L 365.759555 -105.712146 
L 362.299376 -99.664921 
L 358.838159 -114.487107 
L 355.37798 -113.125603 
L 351.917801 -119.925836 
L 348.456584 -108.867398 
L 344.996405 -117.274707 
L 341.536226 -127.322242 
L 338.075009 -129.278077 
L 334.61483 -121.818253 
L 331.154651 -109.825143 
L 327.693434 -119.363202 
L 324.233255 -107.794689 
L 320.773076 -106.372883 
L 317.311859 -128.014968 
L 313.85168 -127.708347 
L 310.391501 -110.338393 
L 306.930284 -113.386514 
L 303.470105 -91.334368 
L 300.009926 -92.693328 
L 296.548709 -98.0974 
L 293.08853 -85.625092 
L 289.628351 -91.195773 
L 286.167134 -97.023549 
L 282.706955 -102.76037 
L 279.246776 -109.649665 
L 275.785559 -120.250229 
L 272.32538 -86.387488 
L 268.865201 -85.851071 
L 265.403984 -116.471115 
L 261.943805 -121.661809 
L 258.483626 -90.496747 
L 255.022409 -113.77012 
L 251.56223 -121.622663 
L 248.102051 -107.494371 
L 244.640834 -112.128787 
L 241.180655 -101.324753 
L 237.720476 -101.252662 
L 234.259259 -106.576042 
L 230.79908 -112.514577 
L 227.338901 -110.370793 
L 223.877684 -111.07702 
L 220.417505 -118.331441 
L 216.957326 -124.759013 
L 213.496109 -109.811861 
L 210.03593 -104.129261 
L 206.575751 -100.884342 
L 203.114534 -105.019289 
L 199.654355 -98.135735 
L 196.194176 -101.6067 
L 192.732959 -95.839649 
L 189.27278 -98.014678 
L 185.812601 -106.475004 
L 182.351384 -106.27268 
L 178.891205 -109.716208 
L 175.431026 -107.424361 
L 171.969809 -110.315742 
L 168.50963 -105.374601 
L 165.049451 -125.257969 
L 161.588234 -117.474694 
L 158.128055 -105.509155 
L 154.667876 -108.509981 
L 151.206659 -106.119822 
L 147.74648 -111.924979 
L 144.286301 -98.550221 
L 140.825084 -101.766738 
L 137.364905 -104.549667 
L 133.904726 -105.051212 
L 130.443509 -102.945269 
L 126.98333 -112.264107 
L 123.523151 -102.431842 
L 120.061934 -97.407555 
L 116.601755 -97.872416 
L 113.141576 -93.950531 
L 109.680359 -95.094351 
L 106.22018 -91.515984 
L 102.760001 -114.722201 
L 99.298784 -100.277618 
L 95.838605 -99.165901 
L 92.378426 -105.5933 
L 88.917209 -93.863987 
L 85.45703 -96.671729 
L 81.996851 -88.046623 
L 78.535634 -76.979386 
L 75.075455 -81.405204 
L 71.615276 -80.443996 
L 68.154059 -86.113349 
L 64.69388 -84.370234 
L 61.233701 -77.033901 
z
" style="stroke: #7f7f7f; stroke-opacity: 0.1"/>
    </defs>
    <g clip-path="url(#p6d391b8c6f)">
     <use xlink:href="#m6b8e4ef125" x="0" y="252" style="fill: #7f7f7f; fill-opacity: 0.1; stroke: #7f7f7f; stroke-opacity: 0.1"/>
    </g>
   </g>
   <g id="matplotlib.axis_1">
    <g id="xtick_1">
     <g id="line2d_1">
      <path d="M 59.555 201.04 
L 59.555 14.609508 
" clip-path="url(#p6d391b8c6f)" style="fill: none; stroke-dasharray: 2.96,1.28; stroke-dashoffset: 0; stroke: #d3d3d3; stroke-width: 0.8"/>
     </g>
     <g id="line2d_2">
      <defs>
       <path id="m863a60a316" d="M 0 0 
L 0 3.5 
" style="stroke: #000000; stroke-width: 0.8"/>
      </defs>
      <g>
       <use xlink:href="#m863a60a316" x="59.555" y="201.04" style="stroke: #000000; stroke-width: 0.8"/>
      </g>
     </g>
     <g id="text_1">
      <!-- 0.00 -->
      <g transform="translate(43.969063 218.677813) scale(0.14 -0.14)">
       <defs>
        <path id="DejaVuSans-30" d="M 2034 4250 
Q 1547 4250 1301 3770 
Q 1056 3291 1056 2328 
Q 1056 1369 1301 889 
Q 1547 409 2034 409 
Q 2525 409 2770 889 
Q 3016 1369 3016 2328 
Q 3016 3291 2770 3770 
Q 2525 4250 2034 4250 
z
M 2034 4750 
Q 2819 4750 3233 4129 
Q 3647 3509 3647 2328 
Q 3647 1150 3233 529 
Q 2819 -91 2034 -91 
Q 1250 -91 836 529 
Q 422 1150 422 2328 
Q 422 3509 836 4129 
Q 1250 4750 2034 4750 
z
" transform="scale(0.015625)"/>
        <path id="DejaVuSans-2e" d="M 684 794 
L 1344 794 
L 1344 0 
L 684 0 
L 684 794 
z
" transform="scale(0.015625)"/>
       </defs>
       <use xlink:href="#DejaVuSans-30"/>
       <use xlink:href="#DejaVuSans-2e" x="63.623047"/>
       <use xlink:href="#DejaVuSans-30" x="95.410156"/>
       <use xlink:href="#DejaVuSans-30" x="159.033203"/>
      </g>
     </g>
    </g>
    <g id="xtick_2">
     <g id="line2d_3">
      <path d="M 146.068125 201.04 
L 146.068125 14.609508 
" clip-path="url(#p6d391b8c6f)" style="fill: none; stroke-dasharray: 2.96,1.28; stroke-dashoffset: 0; stroke: #d3d3d3; stroke-width: 0.8"/>
     </g>
     <g id="line2d_4">
      <g>
       <use xlink:href="#m863a60a316" x="146.068125" y="201.04" style="stroke: #000000; stroke-width: 0.8"/>
      </g>
     </g>
     <g id="text_2">
      <!-- 0.25 -->
      <g transform="translate(130.482187 218.677813) scale(0.14 -0.14)">
       <defs>
        <path id="DejaVuSans-32" d="M 1228 531 
L 3431 531 
L 3431 0 
L 469 0 
L 469 531 
Q 828 903 1448 1529 
Q 2069 2156 2228 2338 
Q 2531 2678 2651 2914 
Q 2772 3150 2772 3378 
Q 2772 3750 2511 3984 
Q 2250 4219 1831 4219 
Q 1534 4219 1204 4116 
Q 875 4013 500 3803 
L 500 4441 
Q 881 4594 1212 4672 
Q 1544 4750 1819 4750 
Q 2544 4750 2975 4387 
Q 3406 4025 3406 3419 
Q 3406 3131 3298 2873 
Q 3191 2616 2906 2266 
Q 2828 2175 2409 1742 
Q 1991 1309 1228 531 
z
" transform="scale(0.015625)"/>
        <path id="DejaVuSans-35" d="M 691 4666 
L 3169 4666 
L 3169 4134 
L 1269 4134 
L 1269 2991 
Q 1406 3038 1543 3061 
Q 1681 3084 1819 3084 
Q 2600 3084 3056 2656 
Q 3513 2228 3513 1497 
Q 3513 744 3044 326 
Q 2575 -91 1722 -91 
Q 1428 -91 1123 -41 
Q 819 9 494 109 
L 494 744 
Q 775 591 1075 516 
Q 1375 441 1709 441 
Q 2250 441 2565 725 
Q 2881 1009 2881 1497 
Q 2881 1984 2565 2268 
Q 2250 2553 1709 2553 
Q 1456 2553 1204 2497 
Q 953 2441 691 2322 
L 691 4666 
z
" transform="scale(0.015625)"/>
       </defs>
       <use xlink:href="#DejaVuSans-30"/>
       <use xlink:href="#DejaVuSans-2e" x="63.623047"/>
       <use xlink:href="#DejaVuSans-32" x="95.410156"/>
       <use xlink:href="#DejaVuSans-35" x="159.033203"/>
      </g>
     </g>
    </g>
    <g id="xtick_3">
     <g id="line2d_5">
      <path d="M 232.58125 201.04 
L 232.58125 14.609508 
" clip-path="url(#p6d391b8c6f)" style="fill: none; stroke-dasharray: 2.96,1.28; stroke-dashoffset: 0; stroke: #d3d3d3; stroke-width: 0.8"/>
     </g>
     <g id="line2d_6">
      <g>
       <use xlink:href="#m863a60a316" x="232.58125" y="201.04" style="stroke: #000000; stroke-width: 0.8"/>
      </g>
     </g>
     <g id="text_3">
      <!-- 0.50 -->
      <g transform="translate(216.995312 218.677813) scale(0.14 -0.14)">
       <use xlink:href="#DejaVuSans-30"/>
       <use xlink:href="#DejaVuSans-2e" x="63.623047"/>
       <use xlink:href="#DejaVuSans-35" x="95.410156"/>
       <use xlink:href="#DejaVuSans-30" x="159.033203"/>
      </g>
     </g>
    </g>
    <g id="xtick_4">
     <g id="line2d_7">
      <path d="M 319.094375 201.04 
L 319.094375 14.609508 
" clip-path="url(#p6d391b8c6f)" style="fill: none; stroke-dasharray: 2.96,1.28; stroke-dashoffset: 0; stroke: #d3d3d3; stroke-width: 0.8"/>
     </g>
     <g id="line2d_8">
      <g>
       <use xlink:href="#m863a60a316" x="319.094375" y="201.04" style="stroke: #000000; stroke-width: 0.8"/>
      </g>
     </g>
     <g id="text_4">
      <!-- 0.75 -->
      <g transform="translate(303.508437 218.677813) scale(0.14 -0.14)">
       <defs>
        <path id="DejaVuSans-37" d="M 525 4666 
L 3525 4666 
L 3525 4397 
L 1831 0 
L 1172 0 
L 2766 4134 
L 525 4134 
L 525 4666 
z
" transform="scale(0.015625)"/>
       </defs>
       <use xlink:href="#DejaVuSans-30"/>
       <use xlink:href="#DejaVuSans-2e" x="63.623047"/>
       <use xlink:href="#DejaVuSans-37" x="95.410156"/>
       <use xlink:href="#DejaVuSans-35" x="159.033203"/>
      </g>
     </g>
    </g>
    <g id="xtick_5">
     <g id="line2d_9">
      <path d="M 405.6075 201.04 
L 405.6075 14.609508 
" clip-path="url(#p6d391b8c6f)" style="fill: none; stroke-dasharray: 2.96,1.28; stroke-dashoffset: 0; stroke: #d3d3d3; stroke-width: 0.8"/>
     </g>
     <g id="line2d_10">
      <g>
       <use xlink:href="#m863a60a316" x="405.6075" y="201.04" style="stroke: #000000; stroke-width: 0.8"/>
      </g>
     </g>
     <g id="text_5">
      <!-- 1.00 -->
      <g transform="translate(390.021562 218.677813) scale(0.14 -0.14)">
       <defs>
        <path id="DejaVuSans-31" d="M 794 531 
L 1825 531 
L 1825 4091 
L 703 3866 
L 703 4441 
L 1819 4666 
L 2450 4666 
L 2450 531 
L 3481 531 
L 3481 0 
L 794 0 
L 794 531 
z
" transform="scale(0.015625)"/>
       </defs>
       <use xlink:href="#DejaVuSans-31"/>
       <use xlink:href="#DejaVuSans-2e" x="63.623047"/>
       <use xlink:href="#DejaVuSans-30" x="95.410156"/>
       <use xlink:href="#DejaVuSans-30" x="159.033203"/>
      </g>
     </g>
    </g>
    <g id="text_6">
     <!-- Environment steps (×10⁶) -->
     <g transform="translate(128.6125 237.746875) scale(0.16 -0.16)">
      <defs>
       <path id="DejaVuSans-45" d="M 628 4666 
L 3578 4666 
L 3578 4134 
L 1259 4134 
L 1259 2753 
L 3481 2753 
L 3481 2222 
L 1259 2222 
L 1259 531 
L 3634 531 
L 3634 0 
L 628 0 
L 628 4666 
z
" transform="scale(0.015625)"/>
       <path id="DejaVuSans-6e" d="M 3513 2113 
L 3513 0 
L 2938 0 
L 2938 2094 
Q 2938 2591 2744 2837 
Q 2550 3084 2163 3084 
Q 1697 3084 1428 2787 
Q 1159 2491 1159 1978 
L 1159 0 
L 581 0 
L 581 3500 
L 1159 3500 
L 1159 2956 
Q 1366 3272 1645 3428 
Q 1925 3584 2291 3584 
Q 2894 3584 3203 3211 
Q 3513 2838 3513 2113 
z
" transform="scale(0.015625)"/>
       <path id="DejaVuSans-76" d="M 191 3500 
L 800 3500 
L 1894 563 
L 2988 3500 
L 3597 3500 
L 2284 0 
L 1503 0 
L 191 3500 
z
" transform="scale(0.015625)"/>
       <path id="DejaVuSans-69" d="M 603 3500 
L 1178 3500 
L 1178 0 
L 603 0 
L 603 3500 
z
M 603 4863 
L 1178 4863 
L 1178 4134 
L 603 4134 
L 603 4863 
z
" transform="scale(0.015625)"/>
       <path id="DejaVuSans-72" d="M 2631 2963 
Q 2534 3019 2420 3045 
Q 2306 3072 2169 3072 
Q 1681 3072 1420 2755 
Q 1159 2438 1159 1844 
L 1159 0 
L 581 0 
L 581 3500 
L 1159 3500 
L 1159 2956 
Q 1341 3275 1631 3429 
Q 1922 3584 2338 3584 
Q 2397 3584 2469 3576 
Q 2541 3569 2628 3553 
L 2631 2963 
z
" transform="scale(0.015625)"/>
       <path id="DejaVuSans-6f" d="M 1959 3097 
Q 1497 3097 1228 2736 
Q 959 2375 959 1747 
Q 959 1119 1226 758 
Q 1494 397 1959 397 
Q 2419 397 2687 759 
Q 2956 1122 2956 1747 
Q 2956 2369 2687 2733 
Q 2419 3097 1959 3097 
z
M 1959 3584 
Q 2709 3584 3137 3096 
Q 3566 2609 3566 1747 
Q 3566 888 3137 398 
Q 2709 -91 1959 -91 
Q 1206 -91 779 398 
Q 353 888 353 1747 
Q 353 2609 779 3096 
Q 1206 3584 1959 3584 
z
" transform="scale(0.015625)"/>
       <path id="DejaVuSans-6d" d="M 3328 2828 
Q 3544 3216 3844 3400 
Q 4144 3584 4550 3584 
Q 5097 3584 5394 3201 
Q 5691 2819 5691 2113 
L 5691 0 
L 5113 0 
L 5113 2094 
Q 5113 2597 4934 2840 
Q 4756 3084 4391 3084 
Q 3944 3084 3684 2787 
Q 3425 2491 3425 1978 
L 3425 0 
L 2847 0 
L 2847 2094 
Q 2847 2600 2669 2842 
Q 2491 3084 2119 3084 
Q 1678 3084 1418 2786 
Q 1159 2488 1159 1978 
L 1159 0 
L 581 0 
L 581 3500 
L 1159 3500 
L 1159 2956 
Q 1356 3278 1631 3431 
Q 1906 3584 2284 3584 
Q 2666 3584 2933 3390 
Q 3200 3197 3328 2828 
z
" transform="scale(0.015625)"/>
       <path id="DejaVuSans-65" d="M 3597 1894 
L 3597 1613 
L 953 1613 
Q 991 1019 1311 708 
Q 1631 397 2203 397 
Q 2534 397 2845 478 
Q 3156 559 3463 722 
L 3463 178 
Q 3153 47 2828 -22 
Q 2503 -91 2169 -91 
Q 1331 -91 842 396 
Q 353 884 353 1716 
Q 353 2575 817 3079 
Q 1281 3584 2069 3584 
Q 2775 3584 3186 3129 
Q 3597 2675 3597 1894 
z
M 3022 2063 
Q 3016 2534 2758 2815 
Q 2500 3097 2075 3097 
Q 1594 3097 1305 2825 
Q 1016 2553 972 2059 
L 3022 2063 
z
" transform="scale(0.015625)"/>
       <path id="DejaVuSans-74" d="M 1172 4494 
L 1172 3500 
L 2356 3500 
L 2356 3053 
L 1172 3053 
L 1172 1153 
Q 1172 725 1289 603 
Q 1406 481 1766 481 
L 2356 481 
L 2356 0 
L 1766 0 
Q 1100 0 847 248 
Q 594 497 594 1153 
L 594 3053 
L 172 3053 
L 172 3500 
L 594 3500 
L 594 4494 
L 1172 4494 
z
" transform="scale(0.015625)"/>
       <path id="DejaVuSans-20" transform="scale(0.015625)"/>
       <path id="DejaVuSans-73" d="M 2834 3397 
L 2834 2853 
Q 2591 2978 2328 3040 
Q 2066 3103 1784 3103 
Q 1356 3103 1142 2972 
Q 928 2841 928 2578 
Q 928 2378 1081 2264 
Q 1234 2150 1697 2047 
L 1894 2003 
Q 2506 1872 2764 1633 
Q 3022 1394 3022 966 
Q 3022 478 2636 193 
Q 2250 -91 1575 -91 
Q 1294 -91 989 -36 
Q 684 19 347 128 
L 347 722 
Q 666 556 975 473 
Q 1284 391 1588 391 
Q 1994 391 2212 530 
Q 2431 669 2431 922 
Q 2431 1156 2273 1281 
Q 2116 1406 1581 1522 
L 1381 1569 
Q 847 1681 609 1914 
Q 372 2147 372 2553 
Q 372 3047 722 3315 
Q 1072 3584 1716 3584 
Q 2034 3584 2315 3537 
Q 2597 3491 2834 3397 
z
" transform="scale(0.015625)"/>
       <path id="DejaVuSans-70" d="M 1159 525 
L 1159 -1331 
L 581 -1331 
L 581 3500 
L 1159 3500 
L 1159 2969 
Q 1341 3281 1617 3432 
Q 1894 3584 2278 3584 
Q 2916 3584 3314 3078 
Q 3713 2572 3713 1747 
Q 3713 922 3314 415 
Q 2916 -91 2278 -91 
Q 1894 -91 1617 61 
Q 1341 213 1159 525 
z
M 3116 1747 
Q 3116 2381 2855 2742 
Q 2594 3103 2138 3103 
Q 1681 3103 1420 2742 
Q 1159 2381 1159 1747 
Q 1159 1113 1420 752 
Q 1681 391 2138 391 
Q 2594 391 2855 752 
Q 3116 1113 3116 1747 
z
" transform="scale(0.015625)"/>
       <path id="DejaVuSans-28" d="M 1984 4856 
Q 1566 4138 1362 3434 
Q 1159 2731 1159 2009 
Q 1159 1288 1364 580 
Q 1569 -128 1984 -844 
L 1484 -844 
Q 1016 -109 783 600 
Q 550 1309 550 2009 
Q 550 2706 781 3412 
Q 1013 4119 1484 4856 
L 1984 4856 
z
" transform="scale(0.015625)"/>
       <path id="DejaVuSans-d7" d="M 4488 3438 
L 3059 2003 
L 4488 575 
L 4116 197 
L 2681 1631 
L 1247 197 
L 878 575 
L 2303 2003 
L 878 3438 
L 1247 3816 
L 2681 2381 
L 4116 3816 
L 4488 3438 
z
" transform="scale(0.015625)"/>
       <path id="DejaVuSans-2076" d="M 1359 3541 
Q 1084 3541 925 3378 
Q 766 3213 766 2928 
Q 766 2647 925 2484 
Q 1084 2319 1359 2319 
Q 1631 2319 1791 2484 
Q 1950 2647 1950 2928 
Q 1950 3213 1791 3378 
Q 1631 3541 1359 3541 
z
M 2166 4647 
L 2166 4325 
Q 2013 4388 1856 4419 
Q 1700 4453 1547 4453 
Q 1147 4453 934 4219 
Q 722 3981 691 3503 
Q 809 3656 988 3738 
Q 1169 3819 1381 3819 
Q 1834 3819 2097 3581 
Q 2359 3341 2359 2928 
Q 2359 2531 2084 2284 
Q 1813 2041 1359 2041 
Q 838 2041 563 2387 
Q 288 2734 288 3397 
Q 288 4016 625 4381 
Q 963 4750 1531 4750 
Q 1684 4750 1841 4725 
Q 1997 4697 2166 4647 
z
" transform="scale(0.015625)"/>
       <path id="DejaVuSans-29" d="M 513 4856 
L 1013 4856 
Q 1481 4119 1714 3412 
Q 1947 2706 1947 2009 
Q 1947 1309 1714 600 
Q 1481 -109 1013 -844 
L 513 -844 
Q 928 -128 1133 580 
Q 1338 1288 1338 2009 
Q 1338 2731 1133 3434 
Q 928 4138 513 4856 
z
" transform="scale(0.015625)"/>
      </defs>
      <use xlink:href="#DejaVuSans-45"/>
      <use xlink:href="#DejaVuSans-6e" x="63.183594"/>
      <use xlink:href="#DejaVuSans-76" x="126.5625"/>
      <use xlink:href="#DejaVuSans-69" x="185.742188"/>
      <use xlink:href="#DejaVuSans-72" x="213.525391"/>
      <use xlink:href="#DejaVuSans-6f" x="252.388672"/>
      <use xlink:href="#DejaVuSans-6e" x="313.570312"/>
      <use xlink:href="#DejaVuSans-6d" x="376.949219"/>
      <use xlink:href="#DejaVuSans-65" x="474.361328"/>
      <use xlink:href="#DejaVuSans-6e" x="535.884766"/>
      <use xlink:href="#DejaVuSans-74" x="599.263672"/>
      <use xlink:href="#DejaVuSans-20" x="638.472656"/>
      <use xlink:href="#DejaVuSans-73" x="670.259766"/>
      <use xlink:href="#DejaVuSans-74" x="722.359375"/>
      <use xlink:href="#DejaVuSans-65" x="761.568359"/>
      <use xlink:href="#DejaVuSans-70" x="823.091797"/>
      <use xlink:href="#DejaVuSans-73" x="886.568359"/>
      <use xlink:href="#DejaVuSans-20" x="938.667969"/>
      <use xlink:href="#DejaVuSans-28" x="970.455078"/>
      <use xlink:href="#DejaVuSans-d7" x="1009.46875"/>
      <use xlink:href="#DejaVuSans-31" x="1093.257812"/>
      <use xlink:href="#DejaVuSans-30" x="1156.880859"/>
      <use xlink:href="#DejaVuSans-2076" x="1220.503906"/>
      <use xlink:href="#DejaVuSans-29" x="1260.591797"/>
     </g>
    </g>
   </g>
   <g id="matplotlib.axis_2">
    <g id="ytick_1">
     <g id="line2d_11">
      <path d="M 59.555 199.511881 
L 405.6075 199.511881 
" clip-path="url(#p6d391b8c6f)" style="fill: none; stroke-dasharray: 2.96,1.28; stroke-dashoffset: 0; stroke: #d3d3d3; stroke-width: 0.8"/>
     </g>
     <g id="line2d_12">
      <defs>
       <path id="m5cea2810f7" d="M 0 0 
L -3.5 0 
" style="stroke: #000000; stroke-width: 0.8"/>
      </defs>
      <g>
       <use xlink:href="#m5cea2810f7" x="59.555" y="199.511881" style="stroke: #000000; stroke-width: 0.8"/>
      </g>
     </g>
     <g id="text_7">
      <!-- 0.0 -->
      <g transform="translate(30.290625 204.830787) scale(0.14 -0.14)">
       <use xlink:href="#DejaVuSans-30"/>
       <use xlink:href="#DejaVuSans-2e" x="63.623047"/>
       <use xlink:href="#DejaVuSans-30" x="95.410156"/>
      </g>
     </g>
    </g>
    <g id="ytick_2">
     <g id="line2d_13">
      <path d="M 59.555 138.38713 
L 405.6075 138.38713 
" clip-path="url(#p6d391b8c6f)" style="fill: none; stroke-dasharray: 2.96,1.28; stroke-dashoffset: 0; stroke: #d3d3d3; stroke-width: 0.8"/>
     </g>
     <g id="line2d_14">
      <g>
       <use xlink:href="#m5cea2810f7" x="59.555" y="138.38713" style="stroke: #000000; stroke-width: 0.8"/>
      </g>
     </g>
     <g id="text_8">
      <!-- 0.4 -->
      <g transform="translate(30.290625 143.706036) scale(0.14 -0.14)">
       <defs>
        <path id="DejaVuSans-34" d="M 2419 4116 
L 825 1625 
L 2419 1625 
L 2419 4116 
z
M 2253 4666 
L 3047 4666 
L 3047 1625 
L 3713 1625 
L 3713 1100 
L 3047 1100 
L 3047 0 
L 2419 0 
L 2419 1100 
L 313 1100 
L 313 1709 
L 2253 4666 
z
" transform="scale(0.015625)"/>
       </defs>
       <use xlink:href="#DejaVuSans-30"/>
       <use xlink:href="#DejaVuSans-2e" x="63.623047"/>
       <use xlink:href="#DejaVuSans-34" x="95.410156"/>
      </g>
     </g>
    </g>
    <g id="ytick_3">
     <g id="line2d_15">
      <path d="M 59.555 77.262378 
L 405.6075 77.262378 
" clip-path="url(#p6d391b8c6f)" style="fill: none; stroke-dasharray: 2.96,1.28; stroke-dashoffset: 0; stroke: #d3d3d3; stroke-width: 0.8"/>
     </g>
     <g id="line2d_16">
      <g>
       <use xlink:href="#m5cea2810f7" x="59.555" y="77.262378" style="stroke: #000000; stroke-width: 0.8"/>
      </g>
     </g>
     <g id="text_9">
      <!-- 0.8 -->
      <g transform="translate(30.290625 82.581285) scale(0.14 -0.14)">
       <defs>
        <path id="DejaVuSans-38" d="M 2034 2216 
Q 1584 2216 1326 1975 
Q 1069 1734 1069 1313 
Q 1069 891 1326 650 
Q 1584 409 2034 409 
Q 2484 409 2743 651 
Q 3003 894 3003 1313 
Q 3003 1734 2745 1975 
Q 2488 2216 2034 2216 
z
M 1403 2484 
Q 997 2584 770 2862 
Q 544 3141 544 3541 
Q 544 4100 942 4425 
Q 1341 4750 2034 4750 
Q 2731 4750 3128 4425 
Q 3525 4100 3525 3541 
Q 3525 3141 3298 2862 
Q 3072 2584 2669 2484 
Q 3125 2378 3379 2068 
Q 3634 1759 3634 1313 
Q 3634 634 3220 271 
Q 2806 -91 2034 -91 
Q 1263 -91 848 271 
Q 434 634 434 1313 
Q 434 1759 690 2068 
Q 947 2378 1403 2484 
z
M 1172 3481 
Q 1172 3119 1398 2916 
Q 1625 2713 2034 2713 
Q 2441 2713 2670 2916 
Q 2900 3119 2900 3481 
Q 2900 3844 2670 4047 
Q 2441 4250 2034 4250 
Q 1625 4250 1398 4047 
Q 1172 3844 1172 3481 
z
" transform="scale(0.015625)"/>
       </defs>
       <use xlink:href="#DejaVuSans-30"/>
       <use xlink:href="#DejaVuSans-2e" x="63.623047"/>
       <use xlink:href="#DejaVuSans-38" x="95.410156"/>
      </g>
     </g>
    </g>
    <g id="ytick_4">
     <g id="line2d_17">
      <path d="M 59.555 16.137627 
L 405.6075 16.137627 
" clip-path="url(#p6d391b8c6f)" style="fill: none; stroke-dasharray: 2.96,1.28; stroke-dashoffset: 0; stroke: #d3d3d3; stroke-width: 0.8"/>
     </g>
     <g id="line2d_18">
      <g>
       <use xlink:href="#m5cea2810f7" x="59.555" y="16.137627" style="stroke: #000000; stroke-width: 0.8"/>
      </g>
     </g>
     <g id="text_10">
      <!-- 1.2 -->
      <g transform="translate(30.290625 21.456533) scale(0.14 -0.14)">
       <use xlink:href="#DejaVuSans-31"/>
       <use xlink:href="#DejaVuSans-2e" x="63.623047"/>
       <use xlink:href="#DejaVuSans-32" x="95.410156"/>
      </g>
     </g>
    </g>
    <g id="text_11">
     <!-- Tasks Completed -->
     <g transform="translate(22.963125 175.438504) rotate(-90) scale(0.16 -0.16)">
      <defs>
       <path id="DejaVuSans-54" d="M -19 4666 
L 3928 4666 
L 3928 4134 
L 2272 4134 
L 2272 0 
L 1638 0 
L 1638 4134 
L -19 4134 
L -19 4666 
z
" transform="scale(0.015625)"/>
       <path id="DejaVuSans-61" d="M 2194 1759 
Q 1497 1759 1228 1600 
Q 959 1441 959 1056 
Q 959 750 1161 570 
Q 1363 391 1709 391 
Q 2188 391 2477 730 
Q 2766 1069 2766 1631 
L 2766 1759 
L 2194 1759 
z
M 3341 1997 
L 3341 0 
L 2766 0 
L 2766 531 
Q 2569 213 2275 61 
Q 1981 -91 1556 -91 
Q 1019 -91 701 211 
Q 384 513 384 1019 
Q 384 1609 779 1909 
Q 1175 2209 1959 2209 
L 2766 2209 
L 2766 2266 
Q 2766 2663 2505 2880 
Q 2244 3097 1772 3097 
Q 1472 3097 1187 3025 
Q 903 2953 641 2809 
L 641 3341 
Q 956 3463 1253 3523 
Q 1550 3584 1831 3584 
Q 2591 3584 2966 3190 
Q 3341 2797 3341 1997 
z
" transform="scale(0.015625)"/>
       <path id="DejaVuSans-6b" d="M 581 4863 
L 1159 4863 
L 1159 1991 
L 2875 3500 
L 3609 3500 
L 1753 1863 
L 3688 0 
L 2938 0 
L 1159 1709 
L 1159 0 
L 581 0 
L 581 4863 
z
" transform="scale(0.015625)"/>
       <path id="DejaVuSans-43" d="M 4122 4306 
L 4122 3641 
Q 3803 3938 3442 4084 
Q 3081 4231 2675 4231 
Q 1875 4231 1450 3742 
Q 1025 3253 1025 2328 
Q 1025 1406 1450 917 
Q 1875 428 2675 428 
Q 3081 428 3442 575 
Q 3803 722 4122 1019 
L 4122 359 
Q 3791 134 3420 21 
Q 3050 -91 2638 -91 
Q 1578 -91 968 557 
Q 359 1206 359 2328 
Q 359 3453 968 4101 
Q 1578 4750 2638 4750 
Q 3056 4750 3426 4639 
Q 3797 4528 4122 4306 
z
" transform="scale(0.015625)"/>
       <path id="DejaVuSans-6c" d="M 603 4863 
L 1178 4863 
L 1178 0 
L 603 0 
L 603 4863 
z
" transform="scale(0.015625)"/>
       <path id="DejaVuSans-64" d="M 2906 2969 
L 2906 4863 
L 3481 4863 
L 3481 0 
L 2906 0 
L 2906 525 
Q 2725 213 2448 61 
Q 2172 -91 1784 -91 
Q 1150 -91 751 415 
Q 353 922 353 1747 
Q 353 2572 751 3078 
Q 1150 3584 1784 3584 
Q 2172 3584 2448 3432 
Q 2725 3281 2906 2969 
z
M 947 1747 
Q 947 1113 1208 752 
Q 1469 391 1925 391 
Q 2381 391 2643 752 
Q 2906 1113 2906 1747 
Q 2906 2381 2643 2742 
Q 2381 3103 1925 3103 
Q 1469 3103 1208 2742 
Q 947 2381 947 1747 
z
" transform="scale(0.015625)"/>
      </defs>
      <use xlink:href="#DejaVuSans-54"/>
      <use xlink:href="#DejaVuSans-61" x="44.583984"/>
      <use xlink:href="#DejaVuSans-73" x="105.863281"/>
      <use xlink:href="#DejaVuSans-6b" x="157.962891"/>
      <use xlink:href="#DejaVuSans-73" x="215.873047"/>
      <use xlink:href="#DejaVuSans-20" x="267.972656"/>
      <use xlink:href="#DejaVuSans-43" x="299.759766"/>
      <use xlink:href="#DejaVuSans-6f" x="369.583984"/>
      <use xlink:href="#DejaVuSans-6d" x="430.765625"/>
      <use xlink:href="#DejaVuSans-70" x="528.177734"/>
      <use xlink:href="#DejaVuSans-6c" x="591.654297"/>
      <use xlink:href="#DejaVuSans-65" x="619.4375"/>
      <use xlink:href="#DejaVuSans-74" x="680.960938"/>
      <use xlink:href="#DejaVuSans-65" x="720.169922"/>
      <use xlink:href="#DejaVuSans-64" x="781.693359"/>
     </g>
    </g>
   </g>
   <g id="line2d_19">
    <path d="M 61.233701 199.511881 
L 64.69388 193.051313 
L 68.154059 192.187975 
L 71.615276 183.598294 
L 75.075455 188.999616 
L 78.535634 187.976131 
L 81.996851 182.128536 
L 85.45703 176.796063 
L 88.917209 178.01085 
L 92.378426 177.112059 
L 95.838605 170.240301 
L 99.298784 161.309065 
L 102.760001 164.311899 
L 106.22018 165.787367 
L 109.680359 176.013205 
L 113.141576 174.409739 
L 116.601755 175.000352 
L 120.061934 165.443053 
L 123.523151 176.211643 
L 126.98333 164.746613 
L 130.443509 169.674027 
L 133.904726 160.185167 
L 137.364905 156.101875 
L 140.825084 168.797148 
L 144.286301 166.622547 
L 147.74648 160.85024 
L 151.206659 155.316676 
L 154.667876 158.728718 
L 158.128055 159.628968 
L 161.588234 154.366476 
L 165.049451 143.454155 
L 168.50963 156.076998 
L 171.969809 153.303676 
L 175.431026 155.484744 
L 178.891205 149.172947 
L 182.351384 148.18538 
L 185.812601 139.041427 
L 189.27278 146.393625 
L 192.732959 151.55341 
L 196.194176 152.506545 
L 199.654355 147.779025 
L 203.114534 142.476061 
L 206.575751 151.497221 
L 210.03593 142.974614 
L 213.496109 148.443756 
L 216.957326 134.875111 
L 220.417505 134.745058 
L 223.877684 136.512585 
L 227.338901 150.081122 
L 230.79908 139.831697 
L 234.259259 137.977582 
L 237.720476 149.120353 
L 241.180655 148.08336 
L 244.640834 147.993417 
L 248.102051 156.773921 
L 251.56223 152.621122 
L 255.022409 144.162567 
L 258.483626 139.82318 
L 261.943805 127.914008 
L 265.403984 125.28989 
L 268.865201 127.792774 
L 272.32538 136.852515 
L 275.785559 148.014855 
L 279.246776 134.15624 
L 282.706955 127.301159 
L 286.167134 126.394271 
L 289.628351 126.367203 
L 293.08853 125.560474 
L 296.548709 116.685548 
L 300.009926 126.079113 
L 303.470105 129.032163 
L 306.930284 121.61008 
L 310.391501 127.592048 
L 313.85168 130.663871 
L 317.311859 130.299814 
L 320.773076 126.51749 
L 324.233255 119.864834 
L 327.693434 124.179343 
L 331.154651 123.870863 
L 334.61483 122.427457 
L 338.075009 121.709573 
L 341.536226 121.609349 
L 344.996405 120.625502 
L 348.456584 124.134509 
L 351.917801 116.3479 
L 355.37798 116.636327 
L 358.838159 102.631227 
L 362.299376 109.008357 
L 365.759555 106.695469 
L 369.219734 113.508748 
L 372.680951 107.957629 
L 376.14113 116.122429 
L 379.601309 103.096078 
L 383.062526 111.493962 
L 386.522705 116.356815 
L 389.982884 112.18928 
L 393.444101 109.987463 
L 396.90428 99.553778 
L 400.364459 113.081249 
L 403.825676 105.186162 
" clip-path="url(#p6d391b8c6f)" style="fill: none; stroke: #17becf; stroke-width: 2; stroke-linecap: square"/>
   </g>
   <g id="line2d_20">
    <path d="M 61.233701 191.641587 
L 64.69388 185.655352 
L 68.154059 183.333748 
L 71.615276 183.688376 
L 75.075455 187.149965 
L 78.535634 187.493377 
L 81.996851 177.081116 
L 85.45703 173.132311 
L 88.917209 170.494372 
L 92.378426 169.463429 
L 95.838605 164.981848 
L 99.298784 171.59558 
L 102.760001 168.349232 
L 106.22018 178.383601 
L 109.680359 181.136821 
L 113.141576 176.057586 
L 116.601755 180.200267 
L 120.061934 179.223549 
L 123.523151 172.663167 
L 126.98333 174.585017 
L 130.443509 172.91646 
L 133.904726 173.721365 
L 137.364905 169.0567 
L 140.825084 171.471658 
L 144.286301 173.976568 
L 147.74648 173.867343 
L 151.206659 168.364825 
L 154.667876 172.542724 
L 158.128055 168.050607 
L 161.588234 169.374964 
L 165.049451 171.472419 
L 168.50963 167.977544 
L 171.969809 168.408539 
L 175.431026 163.187955 
L 178.891205 179.536155 
L 182.351384 167.41294 
L 185.812601 166.8492 
L 189.27278 168.85594 
L 192.732959 168.475626 
L 196.194176 175.303431 
L 199.654355 166.653056 
L 203.114534 175.096176 
L 206.575751 165.942436 
L 210.03593 162.754609 
L 213.496109 168.429519 
L 216.957326 166.395981 
L 220.417505 160.914707 
L 223.877684 163.324686 
L 227.338901 176.212562 
L 230.79908 177.241473 
L 234.259259 167.447489 
L 237.720476 170.892229 
L 241.180655 174.950144 
L 244.640834 164.262635 
L 248.102051 163.833239 
L 251.56223 160.85406 
L 255.022409 174.214079 
L 258.483626 177.851119 
L 261.943805 182.985936 
L 265.403984 183.072359 
L 268.865201 184.118103 
L 272.32538 184.091359 
L 275.785559 176.664795 
L 279.246776 176.839641 
L 282.706955 180.169315 
L 286.167134 175.358814 
L 289.628351 179.938346 
L 293.08853 183.564079 
L 296.548709 175.332568 
L 300.009926 171.910052 
L 303.470105 180.436577 
L 306.930284 181.640973 
L 310.391501 184.827374 
L 313.85168 184.908997 
L 317.311859 183.593927 
L 320.773076 188.116442 
L 324.233255 187.679918 
L 327.693434 187.098157 
L 331.154651 182.852201 
L 334.61483 189.348398 
L 338.075009 181.229249 
L 341.536226 182.924529 
L 344.996405 179.616376 
L 348.456584 188.498505 
L 351.917801 189.436015 
L 355.37798 191.4373 
L 358.838159 193.85341 
L 362.299376 186.932657 
L 365.759555 189.867578 
L 369.219734 186.114122 
L 372.680951 192.350807 
L 376.14113 187.277731 
L 379.601309 190.184837 
L 383.062526 183.931822 
L 386.522705 159.217459 
L 389.982884 166.297448 
L 393.444101 174.614887 
L 396.90428 175.154948 
L 400.364459 162.911932 
L 403.825676 162.58574 
" clip-path="url(#p6d391b8c6f)" style="fill: none; stroke-dasharray: 7.4,3.2; stroke-dashoffset: 0; stroke: #7f7f7f; stroke-width: 2"/>
   </g>
   <g id="patch_3">
    <path d="M 59.555 201.04 
L 59.555 14.609508 
" style="fill: none; stroke: #000000; stroke-width: 0.8; stroke-linejoin: miter; stroke-linecap: square"/>
   </g>
   <g id="patch_4">
    <path d="M 405.6075 201.04 
L 405.6075 14.609508 
" style="fill: none; stroke: #000000; stroke-width: 0.8; stroke-linejoin: miter; stroke-linecap: square"/>
   </g>
   <g id="patch_5">
    <path d="M 59.555 201.04 
L 405.6075 201.04 
" style="fill: none; stroke: #000000; stroke-width: 0.8; stroke-linejoin: miter; stroke-linecap: square"/>
   </g>
   <g id="patch_6">
    <path d="M 59.555 14.609508 
L 405.6075 14.609508 
" style="fill: none; stroke: #000000; stroke-width: 0.8; stroke-linejoin: miter; stroke-linecap: square"/>
   </g>
  </g>
 </g>
 <defs>
  <clipPath id="p6d391b8c6f">
   <rect x="59.555" y="14.609508" width="346.0525" height="186.430492"/>
  </clipPath>
 </defs>
</svg>
